/* XPM */
static char * nounours_xpm[] = {
"32 32 311 2",
"  	c None",
". 	c #FDFDFD",
"+ 	c #FEFEFE",
"@ 	c #FFFFFF",
"# 	c #FDFEFE",
"$ 	c #FEFEFD",
"% 	c #FEFFFE",
"& 	c #FEFDFD",
"* 	c #FEFFFF",
"= 	c #FFFFFE",
"- 	c #F8F9F2",
"; 	c #F1F5DF",
"> 	c #FDFEFB",
", 	c #ECF2D9",
"' 	c #FBFDF7",
") 	c #C9DB8B",
"! 	c #F9FBF1",
"~ 	c #FDFDFB",
"{ 	c #DFEBBB",
"] 	c #D7E5A9",
"^ 	c #FFFEFE",
"/ 	c #F0F6E0",
"( 	c #D0E198",
"_ 	c #DAE8AF",
": 	c #C0D978",
"< 	c #B9D569",
"[ 	c #BBD66D",
"} 	c #C8DD88",
"| 	c #DDEBB6",
"1 	c #D0E39B",
"2 	c #FFFEFD",
"3 	c #D3E3A0",
"4 	c #9AC427",
"5 	c #9AC323",
"6 	c #9CC528",
"7 	c #9BC427",
"8 	c #99C321",
"9 	c #98C220",
"0 	c #A9CC46",
"a 	c #EAF1D0",
"b 	c #FEFEFF",
"c 	c #FEFEFC",
"d 	c #BFD774",
"e 	c #98C323",
"f 	c #A1C735",
"g 	c #A3C939",
"h 	c #A5C93B",
"i 	c #A4CA39",
"j 	c #A4C939",
"k 	c #A4CA3A",
"l 	c #A4C839",
"m 	c #9EC52C",
"n 	c #9DC52B",
"o 	c #DEEBB8",
"p 	c #FDFEFC",
"q 	c #CFE298",
"r 	c #93BF15",
"s 	c #AECF50",
"t 	c #F2F7E1",
"u 	c #AACB49",
"v 	c #9FC731",
"w 	c #A3C938",
"x 	c #9CC52A",
"y 	c #CADE89",
"z 	c #E5EEC5",
"A 	c #9BC426",
"B 	c #9DC42D",
"C 	c #EFF5DD",
"D 	c #F4F7E6",
"E 	c #A6C940",
"F 	c #9FC72C",
"G 	c #A7CA43",
"H 	c #C0DA76",
"I 	c #A5CB3E",
"J 	c #A3C836",
"K 	c #A1C834",
"L 	c #B1D154",
"M 	c #BBD66B",
"N 	c #A2C936",
"O 	c #9CC328",
"P 	c #C1D879",
"Q 	c #FFFEFF",
"R 	c #FDFEFD",
"S 	c #FDFDFC",
"T 	c #D5E5A4",
"U 	c #96C11C",
"V 	c #A2C732",
"W 	c #9FC62F",
"X 	c #97C320",
"Y 	c #9FC730",
"Z 	c #A1C733",
"` 	c #A0C731",
" .	c #A0C732",
"..	c #9CC529",
"+.	c #9DC629",
"@.	c #A2C735",
"#.	c #F4F8E6",
"$.	c #D2E39C",
"%.	c #AACD46",
"&.	c #B1D257",
"*.	c #B1D157",
"=.	c #B2D158",
"-.	c #B1D158",
";.	c #B0D052",
">.	c #B0D053",
",.	c #ECF3D8",
"'.	c #FCFDF8",
").	c #C8DD87",
"!.	c #B2CF5A",
"~.	c #EEF4D9",
"{.	c #E7F0CB",
"].	c #C7DC86",
"^.	c #CCE090",
"/.	c #CCE091",
"(.	c #CBDF8D",
"_.	c #F5F9EB",
":.	c #D4E4A3",
"<.	c #B0CE52",
"[.	c #E0EBBC",
"}.	c #DDE9B4",
"|.	c #97C11F",
"1.	c #97C31F",
"2.	c #B9D467",
"3.	c #CDE193",
"4.	c #98C222",
"5.	c #9FC732",
"6.	c #9DC52C",
"7.	c #D6E6A5",
"8.	c #97C21F",
"9.	c #A7CA44",
"0.	c #F8FBF0",
"a.	c #D7E6A6",
"b.	c #99C324",
"c.	c #A0C730",
"d.	c #B2D058",
"e.	c #CCE08F",
"f.	c #9BC429",
"g.	c #A2C935",
"h.	c #A3C936",
"i.	c #A2C836",
"j.	c #A6CC3F",
"k.	c #CEE193",
"l.	c #9FC72F",
"m.	c #A6CA3D",
"n.	c #F3F7E4",
"o.	c #D9E7AC",
"p.	c #9BC326",
"q.	c #B4D25D",
"r.	c #CCE092",
"s.	c #A3C937",
"t.	c #A4C938",
"u.	c #A7CB41",
"v.	c #D1E399",
"w.	c #A4CA3C",
"x.	c #9EC62E",
"y.	c #A8CA41",
"z.	c #F4F7E5",
"A.	c #D9E7AB",
"B.	c #B3D25D",
"C.	c #CCE192",
"D.	c #9EC52B",
"E.	c #A3CA38",
"F.	c #A1C732",
"G.	c #A7CB42",
"H.	c #D1E298",
"I.	c #A4CA3B",
"J.	c #9EC62D",
"K.	c #A7CA41",
"L.	c #F4F7E7",
"M.	c #A1C832",
"N.	c #F3F7E7",
"O.	c #A3C837",
"P.	c #A4C838",
"Q.	c #A7CB43",
"R.	c #A4CB3B",
"S.	c #9EC72E",
"T.	c #F3F7E6",
"U.	c #9FC72E",
"V.	c #B1CF56",
"W.	c #CEE194",
"X.	c #A2C937",
"Y.	c #9FC62E",
"Z.	c #A4C83B",
"`.	c #F3F8E6",
" +	c #E8F1CD",
".+	c #9DC42C",
"++	c #92BF15",
"@+	c #D0E49B",
"#+	c #A0C832",
"$+	c #E1ECBC",
"%+	c #A9CB48",
"&+	c #93BE14",
"*+	c #B3D05D",
"=+	c #FCFDF9",
"-+	c #ECF3D6",
";+	c #DCE9B4",
">+	c #CCE190",
",+	c #9AC428",
"'+	c #A1C734",
")+	c #EDF3D6",
"!+	c #F8FAF0",
"~+	c #D9E7AE",
"{+	c #FAFBF2",
"]+	c #CCDF91",
"^+	c #94C019",
"/+	c #A3CA39",
"(+	c #9BC528",
"_+	c #EDF3D7",
":+	c #FDFDFE",
"<+	c #F5F9EA",
"[+	c #B7D364",
"}+	c #A7CA42",
"|+	c #A6CA40",
"1+	c #ABCD4C",
"2+	c #A9CB46",
"3+	c #AACB46",
"4+	c #A6CA41",
"5+	c #CEE197",
"6+	c #9EC62C",
"7+	c #B9D567",
"8+	c #FEFDFC",
"9+	c #A5C93D",
"0+	c #9EC62F",
"a+	c #E8F0CB",
"b+	c #FCFCF7",
"c+	c #CCDF90",
"d+	c #98C221",
"e+	c #9DC62B",
"f+	c #BBD76E",
"g+	c #F5F8E8",
"h+	c #A6C93D",
"i+	c #EDF3D9",
"j+	c #CBDF8B",
"k+	c #9DC62D",
"l+	c #B9D667",
"m+	c #F2F7E0",
"n+	c #A5C93C",
"o+	c #9FC630",
"p+	c #9EC52F",
"q+	c #EDF4D3",
"r+	c #F8F8F9",
"s+	c #F7F4FF",
"t+	c #C2D880",
"u+	c #9BC621",
"v+	c #A1CA2C",
"w+	c #B1CE5F",
"x+	c #DAD5E6",
"y+	c #CED4BE",
"z+	c #A7CD3A",
"A+	c #A0C92E",
"B+	c #9FC72B",
"C+	c #DFE6C8",
"D+	c #F8F5FE",
"E+	c #FBFBFA",
"F+	c #F8F8F8",
"G+	c #E8E8E8",
"H+	c #DADADB",
"I+	c #CBC9D1",
"J+	c #B5BE9B",
"K+	c #A0C830",
"L+	c #A3CD2F",
"M+	c #97A66F",
"N+	c #8F8B96",
"O+	c #909190",
"P+	c #9FB853",
"Q+	c #A4CE2B",
"R+	c #A3C249",
"S+	c #C1C1C1",
"T+	c #D1D0D2",
"U+	c #E0E0E0",
"V+	c #EEEEEE",
"W+	c #FCFCFC",
"X+	c #F0F0F0",
"Y+	c #DCDCDC",
"Z+	c #CECECE",
"`+	c #BBBBBA",
" @	c #AEAAB4",
".@	c #9CA095",
"+@	c #8E9382",
"@@	c #77747F",
"#@	c #6A6A68",
"$@	c #6E6E70",
"%@	c #808081",
"&@	c #979D84",
"*@	c #A3A2A4",
"=@	c #B4B2B6",
"-@	c #C3C4C2",
";@	c #D5D5D6",
">@	c #E4E4E4",
",@	c #E3E3E3",
"'@	c #D5D4D4",
")@	c #C7C7C7",
"!@	c #B9B7BD",
"~@	c #AFADB3",
"{@	c #A7A8A8",
"]@	c #A4A4A4",
"^@	c #A6A6A5",
"/@	c #AAA9AC",
"(@	c #B3B1B9",
"_@	c #BFBEC1",
":@	c #CDCECE",
"<@	c #DBDADB",
"[@	c #E9E9E9",
"}@	c #F5F5F5",
"|@	c #FAFAFA",
"1@	c #EFF0EF",
"2@	c #ECECEC",
"3@	c #E9E9E8",
"4@	c #E7E7E7",
"5@	c #EDEEED",
"6@	c #F1F2F1",
". + + @ . + + @ # $ % @ & * + = & + + $ @ $ + = . + + @ . + + @ ",
"+ + + @ + + + @ + @ - ; @ + @ @ @ * + > , @ @ = + + + @ + + + @ ",
"+ + + @ + + + @ + @ ' ) ! @ @ ~ $ @ @ { ] @ * ^ + + + @ + + + @ ",
"+ @ + @ + @ + = + & @ / ( _ : < [ } | 1 @ + # = + = + @ + @ + @ ",
". + + @ . + + = 2 @ ^ 3 4 5 5 6 7 8 9 0 a @ + & # b + @ . + + @ ",
"+ + + @ + + + c $ @ d e f g h i j k l m n o @ p # + + @ + + + @ ",
"+ + + @ + + + b @ q r s t u v w j x y z A B C @ # + + @ + + + @ ",
"+ @ + @ + @ # @ D E F G H I J g j K L M N O P @ Q = + @ + @ + @ ",
". + + = + R S @ T U V W X Y Z `  .Z ..8 K +.@.#.@ S & + + + + @ ",
"+ + b c @ @ @ @ $.%.&.*.=.-.*.*.*.*.=.=.*.;.>.,.@ @ @ $ R + + @ ",
"+ + + @ '.).!.~.{.].^.^.^.^.^.^.^.^.^.^./.(.(._.:.<.[.@ b + + @ ",
"+ @ + @ }.|.1.2.3.4.v v 5. .5. .5. .5. .5.6.w 7.@.8.9.0.@ b + @ ",
". + + @ a.b.c.d.e.f.g.N J h.N h.J h.N h.i. .j.k.i l.m.n.@ + + @ ",
"+ + + @ o.p.l.q.r.n s.w w w w i w w w i t.Z u.v.w.x.y.z.@ + + @ ",
"+ + + @ A.p.W B.C.D.s.w E.E.E.j E.E.E.i t.F.G.H.I.J.K.L.@ + + @ ",
"+ @ + @ A.p.W B.C.n s.w w w w i w w w i t.M.G.H.I.J.K.N.@ + + @ ",
". + + @ A.p.W B.C.n s.g O.w E.i O.w E.i P.F.G.H.I.J.K.L.@ + + @ ",
"+ + + @ A.p.l.B.C.D.s.w w w w i w w w i t.F.Q.H.R.S.y.T.@ + + @ ",
"+ + + @ 7.4.U.V.r.n s.w E.E.E.j E.E.E.i t.F.G.W.X.Y.Z.`.@ + + @ ",
"+ = + @  +.+++].@+7 w w t.t.w i w t.w i w #+k $+%+&+*+=+@ ^ + @ ",
". + + + @ -+;+@ >+,+E.w s.w E.j P.w E.w w '+ .)+!+~+{+@ R * + @ ",
"+ + + + $ @ @ @ ]+^+Y.K j j i.Y.c.w /+w c.(+6._+@ @ @ + + + + @ ",
"+ + + @ :++ + @ <+[+}+|+X.s.w.1+2+j w s.3+4+5+@ Q b + @ & + + @ ",
"+ @ + @ + @ + R @ $ $ } b.6+7+8+_+9+Y 0+a+b+@ b + @ + @ + @ + @ ",
". + + @ . + + = $ @ @ c+d+e+f+@ g+h+l.x.i+@ + + + + + @ . + + @ ",
"+ + + @ + + . b @ @ @ j+d+k+l+@ m+n+o+p+q+@ @ @ + + + @ + + + @ ",
"+ + + @ + + + @ . r+s+t+u+v+w+x+y+z+A+B+C+D+E+@ @ + + @ + + + @ ",
"+ @ + @ + + + F+G+H+I+J+K+L+M+N+O+P+Q+R+S+T+U+V+W+@ + + + @ + @ ",
". + + @ . @ . X+Y+Z+`+ @.@+@@@#@$@%@&@*@=@-@;@>@F+@ @ @ . + + @ ",
"+ + + @ + + @ W+X+,@'@)@!@~@{@]@^@/@(@_@:@<@[@}@+ @ + @ + + + @ ",
"+ + + @ + + + @ @ + |@}@1@2@3@4@4@[@5@6@F+W+@ @ + + + @ + + + @ ",
"+ @ + @ + @ + + + + @ @ @ @ @ @ @ @ @ @ @ + + . + @ + @ + @ + @ "};
