/* XPM */
static char * nounours_xpm[] = {
"32 32 772 2",
"  	c None",
". 	c #FD9D9C",
"+ 	c #FC595F",
"@ 	c #F6484D",
"# 	c #ED565B",
"$ 	c #F76369",
"% 	c #FE8A8A",
"& 	c #FD6467",
"* 	c #FD3134",
"= 	c #FF1D22",
"- 	c #FD1518",
"; 	c #F41514",
"> 	c #F51D1A",
", 	c #FB2529",
"' 	c #F32D32",
") 	c #EF4044",
"! 	c #FA8B8B",
"~ 	c #FEA1AD",
"{ 	c #FB494D",
"] 	c #FE2026",
"^ 	c #FE1C1F",
"/ 	c #FF1919",
"( 	c #FC1617",
"_ 	c #F7191A",
": 	c #FF2223",
"< 	c #FE2424",
"[ 	c #FB2327",
"} 	c #F62528",
"| 	c #ED2D2A",
"1 	c #F34E51",
"2 	c #F39097",
"3 	c #FF9BA6",
"4 	c #FA4D55",
"5 	c #F72127",
"6 	c #FC1F20",
"7 	c #FF1D1E",
"8 	c #FF1C1C",
"9 	c #FF1A1B",
"0 	c #FB1719",
"a 	c #F71918",
"b 	c #FD1614",
"c 	c #FF2221",
"d 	c #FB292D",
"e 	c #F5262D",
"f 	c #EE4C4E",
"g 	c #FFA1AA",
"h 	c #FF4F54",
"i 	c #FF2528",
"j 	c #FF1718",
"k 	c #FF0E0D",
"l 	c #FB0C0B",
"m 	c #F50606",
"n 	c #EE0304",
"o 	c #E60A07",
"p 	c #E40C0C",
"q 	c #E40B09",
"r 	c #DE0D0B",
"s 	c #DD0D0D",
"t 	c #E90E0E",
"u 	c #ED1516",
"v 	c #F32A2C",
"w 	c #F7474F",
"x 	c #F57581",
"y 	c #F2A7A6",
"z 	c #FA5E68",
"A 	c #FB3A3D",
"B 	c #F01113",
"C 	c #EB1212",
"D 	c #E01713",
"E 	c #DA2C28",
"F 	c #E24943",
"G 	c #E46D59",
"H 	c #DF886E",
"I 	c #E1977E",
"J 	c #E29578",
"K 	c #E29A7F",
"L 	c #DB9780",
"M 	c #D78B78",
"N 	c #B75341",
"O 	c #C03124",
"P 	c #D61B17",
"Q 	c #E21112",
"R 	c #EE2B2E",
"S 	c #ED6D63",
"T 	c #EAC39C",
"U 	c #FFF6CB",
"V 	c #F6E8CC",
"W 	c #E8D8B9",
"X 	c #F0DFBE",
"Y 	c #E7D1AE",
"Z 	c #EF534E",
"` 	c #F5090B",
" .	c #E20B0A",
"..	c #CD3D37",
"+.	c #CE775C",
"@.	c #DCA182",
"#.	c #F3CEB3",
"$.	c #FBF0CA",
"%.	c #FFFACF",
"&.	c #FFFBCF",
"*.	c #FFFFD0",
"=.	c #FFFCCA",
"-.	c #FFFECC",
";.	c #FFFFD4",
">.	c #FFFAD0",
",.	c #F0DAB7",
"'.	c #E1C59C",
").	c #D89D7E",
"!.	c #CE493F",
"~.	c #DA1111",
"{.	c #EB0609",
"].	c #E94F42",
"^.	c #F5C8AB",
"/.	c #D7C1A2",
"(.	c #F5EDDC",
"_.	c #FDF0CD",
":.	c #FFEFCB",
"<.	c #EA7158",
"[.	c #F21011",
"}.	c #CB211D",
"|.	c #C17868",
"1.	c #EDDAB4",
"2.	c #FEECC2",
"3.	c #FFFFD7",
"4.	c #FFFFD3",
"5.	c #FFFFD5",
"6.	c #FEFBCE",
"7.	c #FFFDD0",
"8.	c #FFFED0",
"9.	c #F5E8C1",
"0.	c #99886E",
"a.	c #E8D9AF",
"b.	c #FFF7C7",
"c.	c #FFE9B7",
"d.	c #F7E5B6",
"e.	c #E4D2AB",
"f.	c #C57C69",
"g.	c #BD1B18",
"h.	c #E7080D",
"i.	c #DE362E",
"j.	c #E2BF99",
"k.	c #F7E2C4",
"l.	c #FFFCE4",
"m.	c #FFFFE1",
"n.	c #F9AB98",
"o.	c #EE1010",
"p.	c #C41818",
"q.	c #C3977F",
"r.	c #E8D9B3",
"s.	c #F9E3B4",
"t.	c #FFEFC1",
"u.	c #ECE2B7",
"v.	c #897B64",
"w.	c #E4D6B2",
"x.	c #FFFFD1",
"y.	c #FEFDCE",
"z.	c #FFFFE0",
"A.	c #A49C85",
"B.	c #000000",
"C.	c #938367",
"D.	c #FFFFDB",
"E.	c #FFEFBE",
"F.	c #F6E1B2",
"G.	c #F0DDB3",
"H.	c #DCC7A3",
"I.	c #A67D64",
"J.	c #AD2621",
"K.	c #E20D0A",
"L.	c #E66350",
"M.	c #EBD2B5",
"N.	c #EAE0C9",
"O.	c #DFB9A0",
"P.	c #E53532",
"Q.	c #CD080C",
"R.	c #B27567",
"S.	c #F1E5C3",
"T.	c #F3E1B2",
"U.	c #F4DFAE",
"V.	c #FEF6C7",
"W.	c #FFFFE2",
"X.	c #ACA088",
"Y.	c #7B745D",
"Z.	c #FFFFDC",
"`.	c #FEFFD6",
" +	c #A69982",
".+	c #1B1710",
"++	c #B5A589",
"@+	c #FFFFDA",
"#+	c #FFF6C6",
"$+	c #F7E3B4",
"%+	c #ECD7A9",
"&+	c #E5CEA3",
"*+	c #DECDA7",
"=+	c #A9775E",
"-+	c #B41212",
";+	c #DF0F0A",
">+	c #E0756C",
",+	c #F7F3D6",
"'+	c #ED997F",
")+	c #E4070C",
"!+	c #A22F2C",
"~+	c #CFC1A6",
"{+	c #EEDDBC",
"]+	c #F3DDB4",
"^+	c #F0DEB0",
"/+	c #F9EAB9",
"(+	c #DDCDB1",
"_+	c #4D4037",
":+	c #A89C83",
"<+	c #F9ECC2",
"[+	c #FCE9C0",
"}+	c #FFF4CE",
"|+	c #F2E3C5",
"1+	c #FEEBC3",
"2+	c #FFF1C0",
"3+	c #FFF3C4",
"4+	c #FBE4B0",
"5+	c #EDDAA8",
"6+	c #E2D1A5",
"7+	c #DCC697",
"8+	c #C7A983",
"9+	c #8C302C",
"0+	c #C70407",
"a+	c #E24040",
"b+	c #ECECDA",
"c+	c #E97765",
"d+	c #D70406",
"e+	c #B36D62",
"f+	c #EBD7B8",
"g+	c #E6D5AE",
"h+	c #EADAB5",
"i+	c #EBDBAF",
"j+	c #F9E5B0",
"k+	c #FFFFCB",
"l+	c #FFF3C9",
"m+	c #FEEAC5",
"n+	c #F2DFB9",
"o+	c #977557",
"p+	c #5D361C",
"q+	c #583019",
"r+	c #7D5B3F",
"s+	c #E5CBA3",
"t+	c #FBEABC",
"u+	c #F7E0B5",
"v+	c #FBE4B4",
"w+	c #F4DAA5",
"x+	c #E8CE9A",
"y+	c #DCCE9C",
"z+	c #E6D6A5",
"A+	c #DCC8A5",
"B+	c #A46D5B",
"C+	c #940203",
"D+	c #DE2726",
"E+	c #E56B67",
"F+	c #DC0103",
"G+	c #BA7F71",
"H+	c #E7D7B7",
"I+	c #E0D2AB",
"J+	c #E8DAB5",
"K+	c #F0DFB3",
"L+	c #FCEEBD",
"M+	c #FFF7CB",
"N+	c #FEE9C1",
"O+	c #EDD2AE",
"P+	c #734F33",
"Q+	c #3D1801",
"R+	c #49230F",
"S+	c #421C0B",
"T+	c #3B170A",
"U+	c #451F0C",
"V+	c #C1A37F",
"W+	c #FBEDBE",
"X+	c #EAD5AA",
"Y+	c #EDD6A8",
"Z+	c #E9D19E",
"`+	c #E7D7A4",
" @	c #EBDCB0",
".@	c #D6C5A1",
"+@	c #B99075",
"@@	c #950D0A",
"#@	c #DD1C1E",
"$@	c #EB5F65",
"%@	c #E10B09",
"&@	c #CB7B72",
"*@	c #E1DBBB",
"=@	c #E5D9B7",
"-@	c #E6D5B3",
";@	c #EEDDAF",
">@	c #F6E3BA",
",@	c #EDD8B5",
"'@	c #FFF6CF",
")@	c #C6AF8E",
"!@	c #391100",
"~@	c #3F1D0E",
"{@	c #452312",
"]@	c #422012",
"^@	c #37160B",
"/@	c #290B00",
"(@	c #BBA57D",
"_@	c #FFF5C7",
":@	c #E9D8B2",
"<@	c #E1D1AA",
"[@	c #E1CC9B",
"}@	c #D8C494",
"|@	c #CFBD94",
"1@	c #C0AC86",
"2@	c #C08E72",
"3@	c #A7090D",
"4@	c #DE2729",
"5@	c #E96673",
"6@	c #E71616",
"7@	c #D36A61",
"8@	c #DED6B9",
"9@	c #E8DCB9",
"0@	c #E9D8AD",
"a@	c #F2E3B7",
"b@	c #EFE4C1",
"c@	c #EFDFBE",
"d@	c #FFF2CC",
"e@	c #F1DCB6",
"f@	c #76553C",
"g@	c #361302",
"h@	c #321006",
"i@	c #311004",
"j@	c #351506",
"k@	c #957E62",
"l@	c #EBDAAE",
"m@	c #F6E9B9",
"n@	c #EDDEB4",
"o@	c #E2D0A9",
"p@	c #D9C499",
"q@	c #D1BE91",
"r@	c #CBB88F",
"s@	c #CAB48B",
"t@	c #AD7962",
"u@	c #AF0005",
"v@	c #E13333",
"w@	c #EB323A",
"x@	c #D76D5B",
"y@	c #D6CEB2",
"z@	c #E8DABA",
"A@	c #E3D7AA",
"B@	c #E7D9B9",
"C@	c #F9EDD4",
"D@	c #F8EBC9",
"E@	c #F8ECCA",
"F@	c #FFF2CB",
"G@	c #FAE9C9",
"H@	c #C0A98C",
"I@	c #83664F",
"J@	c #71563C",
"K@	c #C9B191",
"L@	c #F6E3B7",
"M@	c #EEDEAC",
"N@	c #ECD8AB",
"O@	c #D6C299",
"P@	c #E2CFAA",
"Q@	c #D1BB95",
"R@	c #C8B28A",
"S@	c #C6B891",
"T@	c #BBA280",
"U@	c #A25A4D",
"V@	c #C40408",
"W@	c #E04744",
"X@	c #E0636D",
"Y@	c #E22E2F",
"Z@	c #DAB8A7",
"`@	c #D8D0B2",
" #	c #DCD0AF",
".#	c #E4D9B7",
"+#	c #EDE1C6",
"@#	c #DCD0B2",
"##	c #E5DBBA",
"$#	c #FDF2D5",
"%#	c #F8ECCC",
"&#	c #F7EBC8",
"*#	c #F7EAC8",
"=#	c #E0D2B1",
"-#	c #FAEFC8",
";#	c #E3D2AA",
">#	c #E8D2AA",
",#	c #E6D1AA",
"'#	c #D1BC90",
")#	c #DFCEA7",
"!#	c #CFBB98",
"~#	c #BEA67F",
"{#	c #C3AF8B",
"]#	c #B7997E",
"^#	c #961814",
"/#	c #D8181A",
"(#	c #DE333D",
"_#	c #D25D51",
":#	c #CCC4AC",
"<#	c #CFC3A6",
"[#	c #D8CCAD",
"}#	c #E4D8BF",
"|#	c #EFE5C9",
"1#	c #E8DFC0",
"2#	c #EBE0C5",
"3#	c #EDDFBF",
"4#	c #E7D8B6",
"5#	c #DBD0B2",
"6#	c #C4B99D",
"7#	c #E6DABB",
"8#	c #DECDAC",
"9#	c #D8C6A4",
"0#	c #D3C09D",
"a#	c #D3BF95",
"b#	c #DAC6A2",
"c#	c #CAB496",
"d#	c #B2946E",
"e#	c #B2A27D",
"f#	c #AF7260",
"g#	c #C00305",
"h#	c #DB4140",
"i#	c #E16A79",
"j#	c #DF292B",
"k#	c #CFA694",
"l#	c #C8C0A5",
"m#	c #D1C3A9",
"n#	c #DCD1BB",
"o#	c #E7DCC5",
"p#	c #F0E5CA",
"q#	c #DCD0B3",
"r#	c #C3B59B",
"s#	c #C4B59D",
"t#	c #CFC2A9",
"u#	c #B2A390",
"v#	c #D7C7B1",
"w#	c #D3C1A5",
"x#	c #D4C3A2",
"y#	c #E5D8B2",
"z#	c #D6C3A1",
"A#	c #D2BE9E",
"B#	c #C0A588",
"C#	c #B49976",
"D#	c #A7886B",
"E#	c #BD2F29",
"F#	c #D52D29",
"G#	c #DD3F49",
"H#	c #CB2E2E",
"I#	c #C6AE9D",
"J#	c #C6BBA3",
"K#	c #CEBCA5",
"L#	c #DED0BB",
"M#	c #DCCEB9",
"N#	c #DED4BB",
"O#	c #E6D9C3",
"P#	c #DBCDB6",
"Q#	c #C6B79C",
"R#	c #CABBA1",
"S#	c #D1C2AC",
"T#	c #D6C8B2",
"U#	c #E3D7BB",
"V#	c #D3BFA2",
"W#	c #C9AF93",
"X#	c #BF9E82",
"Y#	c #AF936F",
"Z#	c #A37F64",
"`#	c #B53D30",
" $	c #C10505",
".$	c #B66F6B",
"+$	c #DD3E44",
"@$	c #D64946",
"#$	c #C9AE9D",
"$$	c #BFB19B",
"%$	c #C5B299",
"&$	c #C8B69D",
"*$	c #CEBAA6",
"=$	c #D1B9A7",
"-$	c #CDB7A4",
";$	c #D8C3AD",
">$	c #E0CCB7",
",$	c #DBC5B2",
"'$	c #CCB39D",
")$	c #C7A58F",
"!$	c #BB997F",
"~$	c #A68769",
"{$	c #A78363",
"]$	c #A76D56",
"^$	c #B93D36",
"/$	c #BE0000",
"($	c #A0302B",
"_$	c #867F77",
":$	c #929492",
"<$	c #A0777A",
"[$	c #B4060C",
"}$	c #C95652",
"|$	c #C8AD99",
"1$	c #C0AA93",
"2$	c #B69A85",
"3$	c #BC9D87",
"4$	c #B5967D",
"5$	c #B68E74",
"6$	c #B1866E",
"7$	c #B28568",
"8$	c #A97D61",
"9$	c #AC8065",
"0$	c #A77D60",
"a$	c #A47556",
"b$	c #A36D4D",
"c$	c #B03529",
"d$	c #BE0003",
"e$	c #A10000",
"f$	c #812B2B",
"g$	c #8F8784",
"h$	c #878989",
"i$	c #969598",
"j$	c #A7A6A7",
"k$	c #B6ADBA",
"l$	c #4D4249",
"m$	c #64494D",
"n$	c #B2252E",
"o$	c #BC2C2D",
"p$	c #BD504C",
"q$	c #BC7E6D",
"r$	c #B5836E",
"s$	c #AD8972",
"t$	c #AB836A",
"u$	c #B4856B",
"v$	c #A77C57",
"w$	c #A97E5E",
"x$	c #AF7E62",
"y$	c #B16F57",
"z$	c #BE4434",
"A$	c #C3110F",
"B$	c #CC0000",
"C$	c #B50000",
"D$	c #761E1E",
"E$	c #9F8685",
"F$	c #929591",
"G$	c #86878B",
"H$	c #A0A0A3",
"I$	c #B4B4B4",
"J$	c #C1C3CB",
"K$	c #A49EA2",
"L$	c #503C3F",
"M$	c #525D65",
"N$	c #953E49",
"O$	c #C40000",
"P$	c #C10109",
"Q$	c #C35053",
"R$	c #B01918",
"S$	c #BF1716",
"T$	c #C12722",
"U$	c #BC4635",
"V$	c #BF8166",
"W$	c #C56352",
"X$	c #CD1D1D",
"Y$	c #D10C0E",
"Z$	c #C90000",
"`$	c #B80D10",
" %	c #D98484",
".%	c #B21016",
"+%	c #B35D5E",
"@%	c #B4B8B9",
"#%	c #858887",
"$%	c #A2A2A6",
"%%	c #ABADAE",
"&%	c #B0BCBB",
"*%	c #BCA9AC",
"=%	c #C66265",
"-%	c #C09197",
";%	c #BDC5C8",
">%	c #9C979A",
",%	c #84787C",
"'%	c #A3A3A6",
")%	c #82686A",
"!%	c #B20D18",
"~%	c #D30001",
"{%	c #D75F6D",
"]%	c #CF8A8E",
"^%	c #C75756",
"/%	c #D80004",
"(%	c #E50001",
"_%	c #E50F1C",
":%	c #E60211",
"<%	c #E10000",
"[%	c #D80000",
"}%	c #DE0002",
"|%	c #D70008",
"1%	c #E4626D",
"2%	c #E91820",
"3%	c #E41C22",
"4%	c #B39EA3",
"5%	c #939E9D",
"6%	c #ADAAAF",
"7%	c #B9C4C8",
"8%	c #C5868A",
"9%	c #E8161A",
"0%	c #C8393D",
"a%	c #C2A7BA",
"b%	c #BB7781",
"c%	c #D31117",
"d%	c #CF5D68",
"e%	c #A8A9AD",
"f%	c #8C8F95",
"g%	c #B5B9C0",
"h%	c #9D979B",
"i%	c #9A252B",
"j%	c #FE0002",
"k%	c #F50000",
"l%	c #F45458",
"m%	c #EF97A1",
"n%	c #DF0707",
"o%	c #FA3F02",
"p%	c #F84C00",
"q%	c #EA1A00",
"r%	c #F30008",
"s%	c #F60001",
"t%	c #F40001",
"u%	c #F70001",
"v%	c #F30000",
"w%	c #F70101",
"x%	c #FF0000",
"y%	c #CF3D3F",
"z%	c #8D9096",
"A%	c #A7B4BA",
"B%	c #CB939D",
"C%	c #FE090C",
"D%	c #E53A38",
"E%	c #C1A0A5",
"F%	c #C95C70",
"G%	c #D1232D",
"H%	c #B98D93",
"I%	c #C26D6C",
"J%	c #EF000A",
"K%	c #D2646A",
"L%	c #7F8A8F",
"M%	c #9999A4",
"N%	c #AAB3BA",
"O%	c #B24F56",
"P%	c #F20000",
"Q%	c #F30105",
"R%	c #ED0000",
"S%	c #EB0001",
"T%	c #FC9F10",
"U%	c #FFE706",
"V%	c #FFDB00",
"W%	c #FFD10B",
"X%	c #EF3500",
"Y%	c #F30001",
"Z%	c #F30002",
"`%	c #FA0000",
" &	c #FD0004",
".&	c #FF0005",
"+&	c #EF0305",
"@&	c #8C6668",
"#&	c #A8A6AF",
"$&	c #F5212E",
"%&	c #EE2620",
"&&	c #C3ACAF",
"*&	c #E93F43",
"=&	c #AEA5A4",
"-&	c #D12D2B",
";&	c #DD1720",
">&	c #B99697",
",&	c #D0575E",
"'&	c #FD0A0E",
")&	c #B1676A",
"!&	c #80898D",
"~&	c #8D969F",
"{&	c #997376",
"]&	c #E40A0D",
"^&	c #F10001",
"/&	c #EF0000",
"(&	c #F74409",
"_&	c #F39914",
":&	c #F3A90A",
"<&	c #FFC535",
"[&	c #F5C600",
"}&	c #EF8C00",
"|&	c #E10300",
"1&	c #F80000",
"2&	c #FD0001",
"3&	c #FE0105",
"4&	c #9C6161",
"5&	c #C05F6B",
"6&	c #E60106",
"7&	c #C59294",
"8&	c #DF4C5D",
"9&	c #EB2222",
"0&	c #ACB0B2",
"a&	c #A79992",
"b&	c #DE2120",
"c&	c #DE2E36",
"d&	c #B2A4AB",
"e&	c #DD2828",
"f&	c #DD1F24",
"g&	c #958485",
"h&	c #7C777E",
"i&	c #6F7983",
"j&	c #CC333C",
"k&	c #EE0000",
"l&	c #F00000",
"m&	c #DF6800",
"n&	c #D16A04",
"o&	c #E18522",
"p&	c #E16C00",
"q&	c #E06B00",
"r&	c #E91700",
"s&	c #F70002",
"t&	c #F90003",
"u&	c #FC0002",
"v&	c #F60005",
"w&	c #DE0000",
"x&	c #B17275",
"y&	c #C91D29",
"z&	c #C93C40",
"A&	c #C4808C",
"B&	c #EE0003",
"C&	c #C07F7D",
"D&	c #A0A2A9",
"E&	c #A7B5B8",
"F&	c #AA9695",
"G&	c #D91113",
"H&	c #D05E6F",
"I&	c #AB8081",
"J&	c #C20000",
"K&	c #A85863",
"L&	c #716D75",
"M&	c #865B6D",
"N&	c #CC131E",
"O&	c #E90002",
"P&	c #E42101",
"Q&	c #FFD300",
"R&	c #FFC200",
"S&	c #F5A700",
"T&	c #F59900",
"U&	c #E15200",
"V&	c #E80004",
"W&	c #F40000",
"X&	c #FD0002",
"Y&	c #F60003",
"Z&	c #A50000",
"`&	c #950000",
" *	c #C80100",
".*	c #A85661",
"+*	c #B60205",
"@*	c #B3797D",
"#*	c #CC2127",
"$*	c #D52127",
"%*	c #AFAAB1",
"&*	c #9F9D9E",
"**	c #A0A3A5",
"=*	c #A3B0AF",
"-*	c #AC4F50",
";*	c #CA0C12",
">*	c #A37B87",
",*	c #AA0E13",
"'*	c #9C272F",
")*	c #714049",
"!*	c #A10305",
"~*	c #DC0002",
"{*	c #C70100",
"]*	c #B64C00",
"^*	c #F7B600",
"/*	c #FFBD00",
"(*	c #D88200",
"_*	c #C50701",
":*	c #EC0003",
"<*	c #E20000",
"[*	c #C00000",
"}*	c #B30000",
"|*	c #970000",
"1*	c #9F0100",
"2*	c #822125",
"3*	c #A0010C",
"4*	c #B4555B",
"5*	c #C60000",
"6*	c #B27272",
"7*	c #B0B3B8",
"                                                                ",
"                        . + @ # $ %                             ",
"                      & * = - ; > , ' ) !                       ",
"                  ~ { ] ^ / ( _ : < [ } | 1 2                   ",
"                3 4 5 6 7 8 9 0 a b 8 c d e f                   ",
"              g h i j k l m n o p q r s t u v w x               ",
"          y z A B C D E F G H I J K L M N O P Q R S T U V       ",
"    W X Y Z `  ...+.@.#.$.%.&.*.=.-.;.>.,.'.).!.~.{.].^./.      ",
"  (._.:.<.[.}.|.1.2.3.4.4.5.6.7.8.9.0.a.b.c.d.e.f.g.h.i.j.k.    ",
"  l.m.n.o.p.q.r.s.t.4.u.v.w.x.y.z.A.B.C.D.E.F.G.H.I.J.K.L.M.    ",
"  N.O.P.Q.R.S.T.U.V.W.X.B.Y.Z.`.D. +.+++@+#+$+%+&+*+=+-+;+>+    ",
"  ,+'+)+!+~+{+]+^+/+Z.(+_+:+@+<+[+}+|+1+2+3+4+5+6+7+8+9+0+a+    ",
"  b+c+d+e+f+g+h+i+j+k+l+m+n+o+p+q+r+s+t+u+v+w+x+y+z+A+B+C+D+    ",
"    E+F+G+H+I+J+K+L+M+N+O+P+Q+R+S+T+U+V+W+X+Y+Z+`+ @.@+@@@#@    ",
"    $@%@&@*@=@-@;@>@,@'@)@!@~@{@]@^@/@(@_@:@<@[@}@|@1@2@3@4@    ",
"    5@6@7@8@9@0@a@b@c@d@e@f@g@h@i@j@k@l@m@n@o@p@q@r@s@t@u@v@    ",
"      w@x@y@z@A@B@C@D@E@F@G@H@I@J@K@L@M@N@O@P@Q@R@S@T@U@V@W@    ",
"      X@Y@Z@`@ #.#+#@###$#%#&#*#=#-#;#>#,#'#)#!#~#{#]#^#/#      ",
"        (#_#:#<#[#}#|#1#2#3#4#5#6#7#8#9#0#a#b#c#d#e#f#g#h#      ",
"        i#j#k#l#m#n#o#p#q#r#s#t#u#v#w#x#y#z#A#B#C#D#E#F#        ",
"          G#H#I#J#K#L#M#N#O#P#Q#R#S#T#U#V#W#X#Y#Z#`# $.$        ",
"            +$@$#$$$%$&$*$=$-$;$>$,$'$)$!$~${$]$^$/$($_$:$      ",
"            <$[$}$|$1$2$3$4$5$6$7$8$9$0$a$b$c$d$e$f$g$h$i$j$    ",
"          k$l$m$n$o$p$q$r$s$t$u$v$w$x$y$z$A$B$C$D$E$F$G$H$I$    ",
"        J$K$L$M$N$O$P$Q$R$S$T$U$V$W$X$Y$Z$`$ %.%+%@%#%$%%%&%*%=%",
"      -%;%>%,%'%)%!%~%{%]%^%/%(%_%:%<%[%}%|%1%2%3%4%5%6%7%8%9%0%",
"  a%b%c%d%e%f%g%h%i%j%k%l%m%n%o%p%q%r%s%t%u%v%w%x%y%z%A%B%C%D%E%",
"F%G%H%I%J%K%L%M%N%O%P%Q%R%S%T%U%V%W%X%Y%Z%v%`% &.&+&@&#&$&%&&&*&",
"=&-&;&>&,&'&)&!&~&{&]&^&/&(&_&:&<&[&}&|&s%k%1&2&3&/&4&5&6&7&8&9&",
"0&a&b&c&d&e&f&g&h&i&j&k&l&p%m&n&o&p&q&r&s&t&x%u&v&w&x&y&z&A&B&C&",
"D&E&F&G&H&I&J&K&L&M&N&/&O&P&Q&R&S&T&U&V&W&X&Y&Z&`& *.*+*@*#*$*%*",
"&***=*-*;*>*,*'*)*!*/$~*{*e$]*^*/*(*_*:*<*<*[*}*|*1*2*3*4*5*6*7*"};
