/* XPM */
static char * nounours_xpm[] = {
"32 32 767 2",
"  	c None",
". 	c #043E76",
"+ 	c #023C75",
"@ 	c #013D72",
"# 	c #023D70",
"$ 	c #023D72",
"% 	c #023D71",
"& 	c #023C71",
"* 	c #043B71",
"= 	c #053B71",
"- 	c #043B72",
"; 	c #023970",
"> 	c #02396F",
", 	c #023A6B",
"' 	c #03396F",
") 	c #033A6C",
"! 	c #033A6B",
"~ 	c #023A6C",
"{ 	c #043A6B",
"] 	c #05396B",
"^ 	c #05396C",
"/ 	c #03376A",
"( 	c #033769",
"_ 	c #043769",
": 	c #003869",
"< 	c #043868",
"[ 	c #043768",
"} 	c #03386A",
"| 	c #04386A",
"1 	c #053869",
"2 	c #033867",
"3 	c #033767",
"4 	c #033866",
"5 	c #073669",
"6 	c #003569",
"7 	c #003667",
"8 	c #003465",
"9 	c #003065",
"0 	c #003167",
"a 	c #013667",
"b 	c #023765",
"c 	c #013565",
"d 	c #013564",
"e 	c #023665",
"f 	c #003163",
"g 	c #002C67",
"h 	c #053463",
"i 	c #0C3761",
"j 	c #1B4064",
"k 	c #3C546B",
"l 	c #31516C",
"m 	c #00305D",
"n 	c #002D61",
"o 	c #003264",
"p 	c #013664",
"q 	c #003565",
"r 	c #003564",
"s 	c #013563",
"t 	c #043564",
"u 	c #043464",
"v 	c #033565",
"w 	c #002F5F",
"x 	c #123963",
"y 	c #516477",
"z 	c #838486",
"A 	c #8B827A",
"B 	c #A09387",
"C 	c #A99B8B",
"D 	c #A29789",
"E 	c #7E7C79",
"F 	c #475D73",
"G 	c #05345D",
"H 	c #002C62",
"I 	c #003361",
"J 	c #00315E",
"K 	c #003062",
"L 	c #01325B",
"M 	c #03335F",
"N 	c #023361",
"O 	c #023460",
"P 	c #033363",
"Q 	c #033364",
"R 	c #033464",
"S 	c #053464",
"T 	c #00265D",
"U 	c #365369",
"V 	c #AC9E90",
"W 	c #B4A28C",
"X 	c #B2A38F",
"Y 	c #B7AC9C",
"Z 	c #AFA397",
"` 	c #AEA497",
" .	c #AEA296",
"..	c #ACA18E",
"+.	c #A99D83",
"@.	c #969287",
"#.	c #3D5867",
"$.	c #002856",
"%.	c #0A3462",
"&.	c #15385B",
"*.	c #06325D",
"=.	c #01325E",
"-.	c #02335D",
";.	c #02335E",
">.	c #02335F",
",.	c #023461",
"'.	c #01325F",
").	c #00305E",
"!.	c #002D5E",
"~.	c #002759",
"{.	c #183F60",
"].	c #A1988C",
"^.	c #A59B8D",
"/.	c #ACA49B",
"(.	c #BBADA1",
"_.	c #B9AA9C",
":.	c #B9AC9D",
"<.	c #B7A99A",
"[.	c #BEAFA0",
"}.	c #C0B4A6",
"|.	c #A69E92",
"1.	c #AA9B8E",
"2.	c #979086",
"3.	c #636C72",
"4.	c #94918C",
"5.	c #AA9E90",
"6.	c #626E7A",
"7.	c #002754",
"8.	c #05335F",
"9.	c #03305D",
"0.	c #03305B",
"a.	c #01335D",
"b.	c #01325D",
"c.	c #03335C",
"d.	c #032E55",
"e.	c #002953",
"f.	c #0A3159",
"g.	c #1E4061",
"h.	c #394E6A",
"i.	c #9B9586",
"j.	c #AEA290",
"k.	c #ABA297",
"l.	c #BFADA4",
"m.	c #CDB9B0",
"n.	c #BFAE9F",
"o.	c #C1B09E",
"p.	c #C4B9AB",
"q.	c #B0A598",
"r.	c #A0968A",
"s.	c #B6ACA1",
"t.	c #ADA395",
"u.	c #A39A8E",
"v.	c #9F978A",
"w.	c #B0A293",
"x.	c #C4B39F",
"y.	c #6F787B",
"z.	c #002150",
"A.	c #07325F",
"B.	c #052F5B",
"C.	c #052F5C",
"D.	c #052F59",
"E.	c #03305A",
"F.	c #03315A",
"G.	c #002C59",
"H.	c #092F52",
"I.	c #687781",
"J.	c #A39890",
"K.	c #AA988B",
"L.	c #A89A8C",
"M.	c #A79A8F",
"N.	c #BEB0A1",
"O.	c #B5A595",
"P.	c #61554F",
"Q.	c #B7A99D",
"R.	c #CEC1B3",
"S.	c #D9CBBC",
"T.	c #5A5955",
"U.	c #141310",
"V.	c #C1B3A5",
"W.	c #BAAD9C",
"X.	c #ACA291",
"Y.	c #999489",
"Z.	c #978F84",
"`.	c #A69A8E",
" +	c #928F8B",
".+	c #264865",
"++	c #002857",
"@+	c #032E5A",
"#+	c #032E58",
"$+	c #042E58",
"%+	c #052F5A",
"&+	c #00234F",
"*+	c #86888E",
"=+	c #D4BDA3",
"-+	c #C9B5A1",
";+	c #B1A08D",
">+	c #A69C8F",
",+	c #A9A094",
"'+	c #B0A190",
")+	c #CFBCA9",
"!+	c #8C867B",
"~+	c #000613",
"{+	c #9B948F",
"]+	c #C9C1B4",
"^+	c #C7B9AE",
"/+	c #8D8588",
"(+	c #414548",
"_+	c #C2B3A0",
":+	c #C3B4A2",
"<+	c #B7AA9C",
"[+	c #A09A91",
"}+	c #938D83",
"|+	c #8F8881",
"1+	c #B7A799",
"2+	c #757C7D",
"3+	c #002352",
"4+	c #002B56",
"5+	c #012C56",
"6+	c #042D55",
"7+	c #002A53",
"8+	c #0F345A",
"9+	c #A8A09C",
"0+	c #BDAB9A",
"a+	c #B2A191",
"b+	c #9E9084",
"c+	c #9C9286",
"d+	c #A99F93",
"e+	c #AE9F8F",
"f+	c #C4B3A1",
"g+	c #A99E8E",
"h+	c #737573",
"i+	c #A59B90",
"j+	c #786354",
"k+	c #6F5346",
"l+	c #948471",
"m+	c #B3AB9E",
"n+	c #AA9D8F",
"o+	c #B7AD9D",
"p+	c #B2A699",
"q+	c #A9A298",
"r+	c #98938A",
"s+	c #958D82",
"t+	c #CCB299",
"u+	c #51626B",
"v+	c #002350",
"w+	c #012A53",
"x+	c #022B53",
"y+	c #052B52",
"z+	c #022A51",
"A+	c #0A2C52",
"B+	c #A59D95",
"C+	c #C6B3A5",
"D+	c #A69385",
"E+	c #9B9088",
"F+	c #A29A8E",
"G+	c #A4998E",
"H+	c #B4A494",
"I+	c #B9A797",
"J+	c #ADA192",
"K+	c #AEA294",
"L+	c #523225",
"M+	c #370F01",
"N+	c #421006",
"O+	c #3F1204",
"P+	c #725749",
"Q+	c #B0A59A",
"R+	c #A29C8F",
"S+	c #B0A599",
"T+	c #AEA499",
"U+	c #A19A91",
"V+	c #918980",
"W+	c #656869",
"X+	c #0F304C",
"Y+	c #002850",
"Z+	c #032950",
"`+	c #032A51",
" @	c #00234B",
".@	c #6E7578",
"+@	c #B5A88F",
"@@	c #9F8F79",
"#@	c #A1978E",
"$@	c #9F9589",
"%@	c #A59B8F",
"&@	c #B6A99A",
"*@	c #A29586",
"=@	c #B8ABA3",
"-@	c #9F887E",
";@	c #340700",
">@	c #4A1F13",
",@	c #4F2617",
"'@	c #350F01",
")@	c #6C564D",
"!@	c #C3BBB0",
"~@	c #A6A093",
"{@	c #A69C92",
"]@	c #A9A196",
"^@	c #A7A093",
"/@	c #A09488",
"(@	c #28415D",
"_@	c #001F4A",
":@	c #04294D",
"<@	c #02284E",
"[@	c #02284D",
"}@	c #00284F",
"|@	c #012750",
"1@	c #03244D",
"2@	c #12324B",
"3@	c #596A6C",
"4@	c #ADA293",
"5@	c #A2978A",
"6@	c #A89E92",
"7@	c #A69D91",
"8@	c #B4AA9F",
"9@	c #BBAFA3",
"0@	c #BEAAA2",
"a@	c #997D73",
"b@	c #6C4F41",
"c@	c #593B30",
"d@	c #897368",
"e@	c #BFB7AD",
"f@	c #B8B2A8",
"g@	c #B0A99F",
"h@	c #A6A097",
"i@	c #A39C92",
"j@	c #A29D8D",
"k@	c #A49B8C",
"l@	c #354A5F",
"m@	c #002148",
"n@	c #052949",
"o@	c #042849",
"p@	c #01284E",
"q@	c #01284D",
"r@	c #04284B",
"s@	c #001946",
"t@	c #4E5869",
"u@	c #AC9B89",
"v@	c #A79D91",
"w@	c #B3A99D",
"x@	c #A8A395",
"y@	c #BDB3A8",
"z@	c #C6BEB2",
"A@	c #C9C4B6",
"B@	c #BAB4AE",
"C@	c #CCC4BB",
"D@	c #C2BAAD",
"E@	c #B6B0A5",
"F@	c #ACA499",
"G@	c #A19A8D",
"H@	c #A29B8C",
"I@	c #9C9387",
"J@	c #1D344C",
"K@	c #00224A",
"L@	c #022646",
"M@	c #022647",
"N@	c #022648",
"O@	c #032748",
"P@	c #001F45",
"Q@	c #384B5D",
"R@	c #AA9B89",
"S@	c #9F9487",
"T@	c #9D9488",
"U@	c #A69B8F",
"V@	c #B5ADA4",
"W@	c #B6AFA5",
"X@	c #BEB8AE",
"Y@	c #CAC4BA",
"Z@	c #ACA69B",
"`@	c #C4BEB4",
" #	c #BBB5AA",
".#	c #B5AFA4",
"+#	c #B8AEA6",
"@#	c #A99F92",
"##	c #A09886",
"$#	c #A6998C",
"%#	c #807973",
"&#	c #0A294A",
"*#	c #002448",
"=#	c #022743",
"-#	c #022744",
";#	c #002245",
">#	c #0F2C4A",
",#	c #8F877C",
"'#	c #A49687",
")#	c #A3978B",
"!#	c #A2978B",
"~#	c #A3998E",
"{#	c #B4ACA3",
"]#	c #B3ABA2",
"^#	c #ADA69C",
"/#	c #AAA399",
"(#	c #B3ABA4",
"_#	c #B3ACA3",
":#	c #C1BCB2",
"<#	c #B5ADA5",
"[#	c #A49C8F",
"}#	c #A29B89",
"|#	c #A59786",
"1#	c #676765",
"2#	c #001E42",
"3#	c #022341",
"4#	c #012441",
"5#	c #002542",
"6#	c #002445",
"7#	c #022242",
"8#	c #022241",
"9#	c #012241",
"0#	c #032342",
"a#	c #00173E",
"b#	c #4B5559",
"c#	c #AC9780",
"d#	c #998C7C",
"e#	c #A79F90",
"f#	c #9F9687",
"g#	c #A69C91",
"h#	c #AFA49A",
"i#	c #B8B0A6",
"j#	c #BAB3A9",
"k#	c #C2BBB3",
"l#	c #B8B1AA",
"m#	c #B2ABA1",
"n#	c #989287",
"o#	c #9A917E",
"p#	c #9D907A",
"q#	c #B19F89",
"r#	c #334556",
"s#	c #001A3C",
"t#	c #022343",
"u#	c #022342",
"v#	c #032443",
"w#	c #001241",
"x#	c #4E5058",
"y#	c #A88F7E",
"z#	c #9E9486",
"A#	c #A79A84",
"B#	c #9F9582",
"C#	c #948C7A",
"D#	c #989084",
"E#	c #9E968E",
"F#	c #9D9689",
"G#	c #999484",
"H#	c #908676",
"I#	c #918473",
"J#	c #9D8F7A",
"K#	c #9D8C7B",
"L#	c #A48E7C",
"M#	c #8E7A66",
"N#	c #062146",
"O#	c #001744",
"P#	c #00203E",
"Q#	c #001F42",
"R#	c #022041",
"S#	c #012140",
"T#	c #002140",
"U#	c #00233D",
"V#	c #01223E",
"W#	c #012245",
"X#	c #001A42",
"Y#	c #001940",
"Z#	c #343C2E",
"`#	c #867113",
" $	c #B98A22",
".$	c #9C8C68",
"+$	c #8F897E",
"@$	c #978A82",
"#$	c #9F9387",
"$$	c #9D9286",
"%$	c #978C80",
"&$	c #91867A",
"*$	c #968C7F",
"=$	c #A59988",
"-$	c #A29480",
";$	c #A88E69",
">$	c #B78D35",
",$	c #B78A0A",
"'$	c #685D1C",
")$	c #1B2F36",
"!$	c #001942",
"~$	c #001D3D",
"{$	c #001A43",
"]$	c #002039",
"^$	c #02213A",
"/$	c #00223D",
"($	c #00223E",
"_$	c #001D40",
":$	c #001842",
"<$	c #393A2B",
"[$	c #997812",
"}$	c #CE9A03",
"|$	c #E5A600",
"1$	c #D79C00",
"2$	c #787014",
"3$	c #214D2D",
"4$	c #446042",
"5$	c #687361",
"6$	c #929181",
"7$	c #8E8D7D",
"8$	c #A59D90",
"9$	c #A6998E",
"0$	c #968F81",
"a$	c #777969",
"b$	c #837D5E",
"c$	c #D5A623",
"d$	c #CE9D00",
"e$	c #D49901",
"f$	c #D39F01",
"g$	c #A78904",
"h$	c #847218",
"i$	c #7E6F1C",
"j$	c #313728",
"k$	c #233035",
"l$	c #041F3D",
"m$	c #00153D",
"n$	c #011F3B",
"o$	c #032039",
"p$	c #001741",
"q$	c #0F2335",
"r$	c #7C6D16",
"s$	c #D6A200",
"t$	c #EDB100",
"u$	c #DBA403",
"v$	c #C69501",
"w$	c #DEA300",
"x$	c #69691C",
"y$	c #144A2D",
"z$	c #1E4C24",
"A$	c #27522F",
"B$	c #315634",
"C$	c #385536",
"D$	c #4E6647",
"E$	c #3B5431",
"F$	c #2F4F2B",
"G$	c #1E4526",
"H$	c #4A5610",
"I$	c #DCAB03",
"J$	c #DDA903",
"K$	c #CA9801",
"L$	c #C99900",
"M$	c #CF9F00",
"N$	c #D6A100",
"O$	c #CF9A00",
"P$	c #C99802",
"Q$	c #BE9303",
"R$	c #9B7D0C",
"S$	c #5B551F",
"T$	c #001F3C",
"U$	c #00123E",
"V$	c #333628",
"W$	c #B98D04",
"X$	c #D7A000",
"Y$	c #D39E04",
"Z$	c #DD9C01",
"`$	c #E2A700",
" %	c #D89807",
".%	c #BE9503",
"+%	c #304F27",
"@%	c #27502A",
"#%	c #264E2D",
"$%	c #1E4622",
"%%	c #224F2A",
"&%	c #325836",
"*%	c #315530",
"=%	c #2A5129",
"-%	c #264D26",
";%	c #294B25",
">%	c #2F4B1D",
",%	c #AD920A",
"'%	c #E6AC00",
")%	c #CB9A01",
"!%	c #D3A000",
"~%	c #DAA500",
"{%	c #CC9401",
"]%	c #D09805",
"^%	c #D19901",
"/%	c #D39600",
"(%	c #D09A19",
"_%	c #C19825",
":%	c #00163D",
"<%	c #30342A",
"[%	c #B68B08",
"}%	c #CC9300",
"|%	c #C99400",
"1%	c #D5A102",
"2%	c #D79605",
"3%	c #E19D01",
"4%	c #E5A404",
"5%	c #77730E",
"6%	c #17452E",
"7%	c #30522A",
"8%	c #244A28",
"9%	c #234B28",
"0%	c #204923",
"a%	c #265128",
"b%	c #325633",
"c%	c #375839",
"d%	c #325631",
"e%	c #30562B",
"f%	c #2A4D2C",
"g%	c #6A680B",
"h%	c #F1AE00",
"i%	c #CD9D01",
"j%	c #D7A501",
"k%	c #D6A300",
"l%	c #CA9502",
"m%	c #DA9E06",
"n%	c #DC9F00",
"o%	c #C9A03B",
"p%	c #C1AC9B",
"q%	c #B6A696",
"r%	c #544D1D",
"s%	c #BF9207",
"t%	c #CD9700",
"u%	c #D09B01",
"v%	c #DAA207",
"w%	c #D7A400",
"x%	c #CF9B00",
"y%	c #D69401",
"z%	c #D89800",
"A%	c #575E21",
"B%	c #184326",
"C%	c #274A23",
"D%	c #2A512E",
"E%	c #29512F",
"F%	c #254D27",
"G%	c #254E25",
"H%	c #294E26",
"I%	c #294C24",
"J%	c #2A4E26",
"K%	c #2D522D",
"L%	c #355834",
"M%	c #364F2F",
"N%	c #968211",
"O%	c #D9A007",
"P%	c #DCA500",
"Q%	c #CF9D00",
"R%	c #CC9C03",
"S%	c #DC9C00",
"T%	c #D8A71E",
"U%	c #C0AE94",
"V%	c #B8AEA2",
"W%	c #AE9E8C",
"X%	c #C29400",
"Y%	c #D79D00",
"Z%	c #DA9F07",
"`%	c #DFA009",
" &	c #DBA100",
".&	c #E2A905",
"+&	c #DAA701",
"@&	c #CD9900",
"#&	c #CD9004",
"$&	c #445828",
"%&	c #154226",
"&&	c #29502C",
"*&	c #2B5633",
"=&	c #23502C",
"-&	c #1F4B28",
";&	c #18472A",
">&	c #1B4826",
",&	c #2C4F20",
"'&	c #214F2C",
")&	c #204421",
"!&	c #21401E",
"~&	c #21482C",
"{&	c #244E2F",
"]&	c #4D5A20",
"^&	c #B38C05",
"/&	c #D19B00",
"(&	c #C99702",
"_&	c #D89C00",
":&	c #CFA64F",
"<&	c #C1B1A9",
"[&	c #B7A492",
"}&	c #AE9C8D",
"|&	c #B19C79",
"1&	c #C3A044",
"2&	c #E0A000",
"3&	c #E4A302",
"4&	c #DDA105",
"5&	c #DB9D01",
"6&	c #D59E02",
"7&	c #C99700",
"8&	c #B48C0B",
"9&	c #39582B",
"0&	c #224B2D",
"a&	c #28522E",
"b&	c #28502A",
"c&	c #1F4A29",
"d&	c #254D2A",
"e&	c #4D6026",
"f&	c #435E24",
"g&	c #2B5832",
"h&	c #5F6A2C",
"i&	c #6E7627",
"j&	c #868317",
"k&	c #677012",
"l&	c #244727",
"m&	c #194D31",
"n&	c #315429",
"o&	c #82730C",
"p&	c #C49000",
"q&	c #CC9700",
"r&	c #C9A858",
"s&	c #C2B2AA",
"t&	c #BAA994",
"u&	c #AF9E8E",
"v&	c #ACA59F",
"w&	c #A8A3A1",
"x&	c #BA9B5D",
"y&	c #DFA702",
"z&	c #DDA100",
"A&	c #D59F02",
"B&	c #BE8C00",
"C&	c #C38C00",
"D&	c #83740A",
"E&	c #1E4F26",
"F&	c #284D28",
"G&	c #1B411F",
"H&	c #26471C",
"I&	c #606F1A",
"J&	c #958612",
"K&	c #C7A007",
"L&	c #B69407",
"M&	c #565F22",
"N&	c #DBB516",
"O&	c #E4B008",
"P&	c #F2B905",
"Q&	c #9E8C12",
"R&	c #19452D",
"S&	c #294F25",
"T&	c #2E5337",
"U&	c #244925",
"V&	c #817209",
"W&	c #C29000",
"X&	c #CDAB58",
"Y&	c #B9AAA6",
"Z&	c #B3A291",
"`&	c #BBAB9B",
" *	c #B4AC98",
".*	c #ADA691",
"+*	c #A9A1A3",
"@*	c #BEA556",
"#*	c #DBA500",
"$*	c #D49804",
"%*	c #B98C02",
"&*	c #86700D",
"**	c #364A18",
"=*	c #0E361B",
"-*	c #183A15",
";*	c #1D4524",
">*	c #34501E",
",*	c #B29512",
"'*	c #C49A09",
")*	c #C49902",
"!*	c #DBAC06",
"~*	c #9E840E",
"{*	c #9C8A16",
"]*	c #D8AA07",
"^*	c #B69309",
"/*	c #435216",
"(*	c #1F4A27",
"_*	c #2C512B",
":*	c #30512A",
"<*	c #204226",
"[*	c #1A3515",
"}*	c #785D00",
"|*	c #B9933E",
"1*	c #AC9C95",
"2*	c #A79889",
". . . . . . . . . . . . . + @ # $ % % % % % % % $ % % % & % % % ",
"* * * * = = = = = = = = = * * * - - - - - - - - - - - ; > , , , ",
"* * * * > > > > > > > > ' ' ' ' ' ' ' ' ' ' ' ' ' ' ' > ' ) ! ! ",
", , , ~ , , , , , , , , { ] ] ] ] ] ] ] ] ] ] ] ] ] ] ^ / ( _ _ ",
", , , , : : : : : : : : < [ ( } | 1 [ ( _ ( ( ( ( ( ( ( ( ( ( ( ",
"2 2 2 2 2 2 2 2 2 2 3 4 5 6 7 8 9 0 a b c d c c d c c c c c c c ",
"d d d d d d d d d d e f g h i j k l m n o p d q r s r r d d d d ",
"t t t t t t t u u v w x y z A B C D E F G H I J K L M N O O O O ",
"P P P P P Q Q R S T U V W X Y Z `  ...+.@.#.$.%.&.*.=.-.;.;.;.-.",
">.>.>.>.,.'.).!.~.{.].^./.(._.:.<.[.}.|.1.2.3.4.5.6.7.8.9.9.9.0.",
"a.a.b.c.d.e.f.g.h.i.j.k.l.m.n.o.p.q.r.s.t.u.v.w.x.y.z.A.B.C.C.D.",
"E.E.F.G.H.I.J.K.L.M. .N.O.P.Q.R.S.T.U.V.W.X.Y.Z.`. +.+++@+@+@+#+",
"$+$+%+&+*+=+-+;+>+,+'+)+!+~+{+]+^+/+(+_+:+<+[+}+|+1+2+3+4+5+5+5+",
"6+6+7+8+9+0+a+b+c+d+e+f+g+h+i+j+k+l+m+n+o+p+q+r+s+t+u+v+w+x+x+x+",
"y+y+z+A+B+C+D+E+F+G+H+I+J+K+L+M+N+O+P+Q+R+S+T+U+V+W+X+Y+Z+Z+Z+Z+",
"`+`+z+ @.@+@@@#@$@%@&@*@=@-@;@>@,@'@)@!@~@{@]@^@/@(@_@:@<@[@[@[@",
"}@}@}@|@1@2@3@4@5@6@7@8@9@0@a@b@c@d@e@f@g@h@i@j@k@l@m@n@o@o@o@o@",
"p@p@p@q@r@s@t@u@].v@$@w@x@y@z@A@B@C@D@E@g@F@G@H@I@J@K@L@M@N@N@M@",
"N@N@N@N@O@P@Q@R@S@7@T@U@V@W@X@Y@Z@`@ #.#+#@###$#%#&#*#=#-#N@N@-#",
"M@M@M@M@M@;#>#,#'#)#!#~#{#]#^#/#U+(#_#:#<#[#}#|#1#2#3#4#5#6#6#5#",
"7#7#7#8#9#0#a#b#c#d#e#f#g#h#i#j#k#l#m#]@n#o#p#q#r#s#t#u#u#u#u#u#",
"0#0#0#u#u#v#;#w#x#y#z#A#B#C#D#E#F#G#H#I#J#K#L#M#N#O#P#Q#R#S#T#T#",
"U#U#U#V#W#X#Y#Z#`# $.$+$@$#$$$%$&$*$#$=$-$;$>$,$'$)$!$~${$!$]$^$",
"/$/$($_$:$<$[$}$|$1$2$3$4$5$6$7$8$9$0$a$b$c$d$e$f$g$h$i$j$k$l$m$",
"n$o$p$q$r$s$t$u$v$w$x$y$z$A$B$C$D$E$F$G$H$I$J$K$L$M$N$O$P$Q$R$S$",
"T$U$V$W$X$Y$Z$`$ %.%+%@%#%$%%%&%*%=%-%;%>%,%'%)%!%~%{%]%^%/%(%_%",
":%<%[%}%|%1%2%3%4%5%6%7%8%9%0%a%b%c%d%e%f%g%h%i%j%k%l%m%n%o%p%q%",
"r%s%t%u%v%w%x%y%z%A%B%C%D%E%F%G%H%I%J%K%L%M%N%O%P%Q%R%S%T%U%V%W%",
"X%Y%Z%`% &.&+&@&#&$&%&&&*&=&-&;&>&,&'&)&!&~&{&]&^&/&(&_&:&<&[&}&",
"|&1&2&3&4&5&6&7&8&9&0&a&b&c&d&e&f&g&h&i&j&k&l&m&n&o&p&q&r&s&t&u&",
"v&w&x&y&z&A&B&C&D&E&F&G&H&I&J&K&L&M&N&O&P&Q&R&S&T&U&V&W&X&Y&Z&`&",
" *.*+*@*#*$*%*&***=*-*;*>*,*'*)*!*~*{*]*^*/*(*_*:*<*[*}*|*1*2*q%"};
