/* XPM */
static char * nounours_xpm[] = {
"32 32 861 2",
"  	c None",
". 	c #FEF0BE",
"+ 	c #FFF1BF",
"@ 	c #FFF0BE",
"# 	c #FEEFBD",
"$ 	c #FFEFBD",
"% 	c #FEEEBC",
"& 	c #FFEFBC",
"* 	c #FEEDBD",
"= 	c #FFEEBF",
"- 	c #FFEDBE",
"; 	c #FEEDBE",
"> 	c #FFEEC0",
", 	c #FEEDBF",
"' 	c #FFEEC1",
") 	c #FEEDC1",
"! 	c #FFEEC2",
"~ 	c #FEECC0",
"{ 	c #FFF7C0",
"] 	c #FFF7BF",
"^ 	c #FFF6BF",
"/ 	c #FEF6BF",
"( 	c #FFF5BF",
"_ 	c #FFF6C0",
": 	c #FFF5BE",
"< 	c #FEF5BE",
"[ 	c #FEF4BD",
"} 	c #FEF5BD",
"| 	c #FEF4C0",
"1 	c #FEF3C2",
"2 	c #FEF3C1",
"3 	c #FEF4C2",
"4 	c #FEFDBE",
"5 	c #FFFDBE",
"6 	c #FEFCBD",
"7 	c #FDFBBB",
"8 	c #FDFBBC",
"9 	c #FDFCBD",
"0 	c #FDFCBC",
"a 	c #FDFBBD",
"b 	c #FDFBBF",
"c 	c #FEFBBF",
"d 	c #FDFABF",
"e 	c #FBFDC0",
"f 	c #FBFEBE",
"g 	c #FBFEBB",
"h 	c #FBFEBC",
"i 	c #FAFEBC",
"j 	c #FAFFBB",
"k 	c #FAFEBB",
"l 	c #FBFFBD",
"m 	c #FDFFBE",
"n 	c #FCFFBE",
"o 	c #FCFEBD",
"p 	c #FDFDBC",
"q 	c #FEFEBE",
"r 	c #F4FEC0",
"s 	c #F4FEBF",
"t 	c #F3FDBF",
"u 	c #F4FEBD",
"v 	c #F4FEBB",
"w 	c #F4FFBC",
"x 	c #F4FFBB",
"y 	c #F3FEBB",
"z 	c #F5FFBC",
"A 	c #F6FFBD",
"B 	c #F6FFBE",
"C 	c #F7FFBE",
"D 	c #F5FEBD",
"E 	c #F5FEBE",
"F 	c #F8FFBD",
"G 	c #F9FEBE",
"H 	c #EBFEBF",
"I 	c #ECFEC0",
"J 	c #ECFEBF",
"K 	c #EBFEC0",
"L 	c #EBFDBF",
"M 	c #ECFDBF",
"N 	c #EEFDBF",
"O 	c #EEFCBE",
"P 	c #EFFDC0",
"Q 	c #EEFCBF",
"R 	c #EFFDC1",
"S 	c #EEFDC0",
"T 	c #EFFEC0",
"U 	c #EFFEBF",
"V 	c #F0FEBE",
"W 	c #F0FEBD",
"X 	c #F1FFBE",
"Y 	c #E5FFBF",
"Z 	c #E4FFBE",
"` 	c #E4FEBE",
" .	c #E4FEBF",
"..	c #E3FFBE",
"+.	c #E3FEBD",
"@.	c #E4FEBC",
"#.	c #E4FFBF",
"$.	c #E6FFC4",
"%.	c #E8FFC4",
"&.	c #E7FFC2",
"*.	c #E7FFC0",
"=.	c #E8FFBE",
"-.	c #E6FDBC",
";.	c #E7FDBC",
">.	c #E8FEBE",
",.	c #E7FEBE",
"'.	c #E8FEBF",
").	c #E7FEBD",
"!.	c #E7FEBB",
"~.	c #E8FFBC",
"{.	c #E8FEBB",
"].	c #E0FFC2",
"^.	c #E0FFC1",
"/.	c #DFFEC1",
"(.	c #E0FEC2",
"_.	c #DFFFC2",
":.	c #E1FCBE",
"<.	c #DFFEBF",
"[.	c #DCFFC9",
"}.	c #E3FAC4",
"|.	c #E3D2AD",
"1.	c #E3D7B0",
"2.	c #E7F3C5",
"3.	c #E5FAC5",
"4.	c #E4FDC9",
"5.	c #E0FFC7",
"6.	c #DFFFBD",
"7.	c #E0FEBD",
"8.	c #E0FEC1",
"9.	c #E1FFC2",
"0.	c #E1FEC1",
"a.	c #E2FDC1",
"b.	c #E3FDC1",
"c.	c #D8FEC0",
"d.	c #D8FFC1",
"e.	c #D8FFC0",
"f.	c #D9FFC1",
"g.	c #D9FEC0",
"h.	c #DDFAC4",
"i.	c #E4D3B2",
"j.	c #E5887D",
"k.	c #E93848",
"l.	c #E3444D",
"m.	c #E26561",
"n.	c #E58175",
"o.	c #E19785",
"p.	c #DFC3A8",
"q.	c #DEF5C7",
"r.	c #D8FFC4",
"s.	c #D9FFBF",
"t.	c #D8FEC1",
"u.	c #DCFDC1",
"v.	c #DDFEC1",
"w.	c #D1FFC1",
"x.	c #D1FFC0",
"y.	c #D1FEC0",
"z.	c #D1FEC1",
"A.	c #D3FDBD",
"B.	c #CDFFC1",
"C.	c #D5F9C8",
"D.	c #E2A492",
"E.	c #E53142",
"F.	c #E9222A",
"G.	c #ED3935",
"H.	c #E6352E",
"I.	c #EA2A2A",
"J.	c #EC2734",
"K.	c #E31B2C",
"L.	c #DF3B47",
"M.	c #E17B74",
"N.	c #E0CBAF",
"O.	c #D6FFCA",
"P.	c #D1FFBB",
"Q.	c #D4FFBD",
"R.	c #D0FFBD",
"S.	c #CEFEBC",
"T.	c #D4FDBD",
"U.	c #D4FEC1",
"V.	c #D5FFC1",
"W.	c #D4FEC0",
"X.	c #C9FEBF",
"Y.	c #C8FEBE",
"Z.	c #C9FFBF",
"`.	c #C8FEBD",
" +	c #C9FEBD",
".+	c #CAFDBE",
"++	c #C3FFC1",
"@+	c #CEF9C6",
"#+	c #DEA998",
"$+	c #E32442",
"%+	c #EB423D",
"&+	c #EF473E",
"*+	c #F33E3A",
"=+	c #EC3E38",
"-+	c #EB3F38",
";+	c #EE3F3B",
">+	c #EC453F",
",+	c #E84B43",
"'+	c #E32632",
")+	c #DF5864",
"!+	c #DDD6C1",
"~+	c #D3FDD0",
"{+	c #D1FDC5",
"]+	c #D0FBC4",
"^+	c #CAFEC0",
"/+	c #CAFFBF",
"(+	c #CCFEBF",
"_+	c #CCFFBF",
":+	c #C0FEBE",
"<+	c #BFFEBE",
"[+	c #C1FEBF",
"}+	c #C2FFBF",
"|+	c #C5FFC6",
"1+	c #C2FFC5",
"2+	c #C3FFC6",
"3+	c #D1EFC8",
"4+	c #E29E95",
"5+	c #E82C42",
"6+	c #EB3A3C",
"7+	c #ED2B29",
"8+	c #EA191F",
"9+	c #E41E20",
"0+	c #D92A26",
"a+	c #D92E2A",
"b+	c #D62B2A",
"c+	c #D32827",
"d+	c #D72B2B",
"e+	c #DB3432",
"f+	c #E03737",
"g+	c #DF4E5C",
"h+	c #DFB2AD",
"i+	c #D6DCC8",
"j+	c #D6D4B9",
"k+	c #DAE3C7",
"l+	c #CBF9C3",
"m+	c #C3FFBD",
"n+	c #C6FDBF",
"o+	c #C7FFBC",
"p+	c #C6FFBB",
"q+	c #BFFFC5",
"r+	c #BEFEC4",
"s+	c #BEFEBF",
"t+	c #C3FDC7",
"u+	c #C6F7CA",
"v+	c #CDE1C4",
"w+	c #CDE3C5",
"x+	c #CDC2A4",
"y+	c #E66567",
"z+	c #E60530",
"A+	c #D8292A",
"B+	c #CD443E",
"C+	c #CE6158",
"D+	c #D58377",
"E+	c #D29685",
"F+	c #D3A28B",
"G+	c #D8A68F",
"H+	c #D6A78D",
"I+	c #D9AC91",
"J+	c #C6957F",
"K+	c #B8705B",
"L+	c #C95649",
"M+	c #D21B23",
"N+	c #DA313E",
"O+	c #D87D71",
"P+	c #DDC1A2",
"Q+	c #DAC3B2",
"R+	c #C9D8C2",
"S+	c #C6FFC9",
"T+	c #C1FFBF",
"U+	c #C2FEC0",
"V+	c #C2FFC0",
"W+	c #BEFECA",
"X+	c #BEFFCA",
"Y+	c #BCFFC6",
"Z+	c #CCF1CB",
"`+	c #D4CCBC",
" @	c #D5C3A7",
".@	c #D4AC8E",
"+@	c #DF4041",
"@@	c #D50000",
"#@	c #C6695A",
"$@	c #C89F85",
"%@	c #D1B89B",
"&@	c #E4CCB0",
"*@	c #F3D9BA",
"=@	c #EBD9B9",
"-@	c #EDD8B9",
";@	c #EDD7B7",
">@	c #E9D4B1",
",@	c #DFCAAB",
"'@	c #E5CEB1",
")@	c #D8C4A4",
"!@	c #CEB498",
"~@	c #C6907B",
"{@	c #C74A3F",
"]@	c #D60F18",
"^@	c #D67B6B",
"/@	c #C8A489",
"(@	c #D1C5BA",
"_@	c #CBF6D5",
":@	c #BDFFC4",
"<@	c #BFFEC5",
"[@	c #BFFFC7",
"}@	c #C1FFD0",
"|@	c #BFFFCF",
"1@	c #BEFFD0",
"2@	c #D2E5CD",
"3@	c #E3D3C0",
"4@	c #E5CCB1",
"5@	c #DF6F60",
"6@	c #D1151B",
"7@	c #BD836C",
"8@	c #CCBA9C",
"9@	c #DDCBAC",
"0@	c #F0D8B9",
"a@	c #E4CDB0",
"b@	c #CCB99E",
"c@	c #E4D2B1",
"d@	c #E5D0B1",
"e@	c #F1DABB",
"f@	c #BAAB95",
"g@	c #524342",
"h@	c #D7BEA0",
"i@	c #ECD2B0",
"j@	c #DBC6A7",
"k@	c #CFC5A3",
"l@	c #BA9D84",
"m@	c #AF4D45",
"n@	c #CE071A",
"o@	c #D67A6A",
"p@	c #D1C5AF",
"q@	c #C3EECE",
"r@	c #BDFFD0",
"s@	c #BFFECA",
"t@	c #BFFECB",
"u@	c #C1FFD9",
"v@	c #BFFFD8",
"w@	c #C1FED8",
"x@	c #CEDDCC",
"y@	c #D3C4B1",
"z@	c #D69181",
"A@	c #D2001E",
"B@	c #B47266",
"C@	c #D1C0A7",
"D@	c #D7C2A2",
"E@	c #DCC4A6",
"F@	c #F4DBBF",
"G@	c #BDA793",
"H@	c #000000",
"I@	c #C0B399",
"J@	c #F4DEBD",
"K@	c #F7E0C1",
"L@	c #AB9D8B",
"M@	c #D5C1A1",
"N@	c #F1DAB6",
"O@	c #D9C6A4",
"P@	c #D1BE9C",
"Q@	c #CABA9B",
"R@	c #B09C83",
"S@	c #B14942",
"T@	c #D2091E",
"U@	c #CCA392",
"V@	c #BFFCD5",
"W@	c #BDFFD5",
"X@	c #BEFDD3",
"Y@	c #BEFED4",
"Z@	c #BDFEDF",
"`@	c #BDFFDF",
" #	c #BDFEE0",
".#	c #CAE2D4",
"+#	c #D4B7A6",
"@#	c #D6564B",
"##	c #BB3039",
"$#	c #BFAC98",
"%#	c #D4C4A9",
"&#	c #D5BD9E",
"*#	c #D6C2A1",
"=#	c #EFDBBA",
"-#	c #CEBAA4",
";#	c #686452",
">#	c #C9B8A0",
",#	c #E5CFB3",
"'#	c #D1BEA1",
")#	c #D6C1AA",
"!#	c #D0C2AA",
"~#	c #DDCCAB",
"{#	c #E4D0AD",
"]#	c #DBC7A4",
"^#	c #D3BD9A",
"/#	c #CBB993",
"(#	c #C4B291",
"_#	c #A6796B",
":#	c #B40000",
"<#	c #D27C76",
"[#	c #C4F8DB",
"}#	c #C0FFDF",
"|#	c #BEFFDC",
"1#	c #BDFFDD",
"2#	c #BFFEE6",
"3#	c #BEFEE4",
"4#	c #BEFFE5",
"5#	c #C6F1E3",
"6#	c #CFB9AD",
"7#	c #D92B25",
"8#	c #B76B66",
"9#	c #CBB7A1",
"0#	c #CDBD9E",
"a#	c #D2BFA1",
"b#	c #D5C29F",
"c#	c #E6D3AD",
"d#	c #E2CFAE",
"e#	c #D7C8AA",
"f#	c #B69F88",
"g#	c #7B5849",
"h#	c #644330",
"i#	c #8B715B",
"j#	c #C3AE94",
"k#	c #D6C3A1",
"l#	c #D4C19F",
"m#	c #CDB997",
"n#	c #CCB994",
"o#	c #CDBC9A",
"p#	c #B39C86",
"q#	c #9C342C",
"r#	c #CE5650",
"s#	c #C6E7D2",
"t#	c #BFFFEC",
"u#	c #BFFEE1",
"v#	c #BEFFE2",
"w#	c #BFFEEB",
"x#	c #C1FCEA",
"y#	c #C1FFF2",
"z#	c #C5D9D0",
"A#	c #D21A21",
"B#	c #BF7568",
"C#	c #C7B9A0",
"D#	c #CCB9A3",
"E#	c #CFBDA2",
"F#	c #D6C6A4",
"G#	c #DAC9AB",
"H#	c #DECDAD",
"I#	c #B7A188",
"J#	c #562D20",
"K#	c #5E3D2C",
"L#	c #634434",
"M#	c #472119",
"N#	c #53270E",
"O#	c #CAB799",
"P#	c #D5C6A4",
"Q#	c #CBB898",
"R#	c #CDB899",
"S#	c #CCB895",
"T#	c #C7B393",
"U#	c #B6A18A",
"V#	c #A7473D",
"W#	c #CB5854",
"X#	c #C2E9D9",
"Y#	c #BDFFEB",
"Z#	c #C0FDE5",
"`#	c #C0FEE8",
" $	c #BFFDF2",
".$	c #C0FDF2",
"+$	c #BEFDF0",
"@$	c #BCFFF8",
"#$	c #C0ECEA",
"$$	c #D6514E",
"%$	c #CC655D",
"&$	c #C2BBA2",
"*$	c #CCBEA3",
"=$	c #CFBEA1",
"-$	c #D4C5A7",
";$	c #CCBBA5",
">$	c #E1CFB7",
",$	c #B5A087",
"'$	c #522915",
")$	c #543126",
"!$	c #553329",
"~$	c #462615",
"{$	c #87755F",
"]$	c #D2C1A2",
"^$	c #D7C7A6",
"/$	c #CCB999",
"($	c #C5B092",
"_$	c #C1AB8A",
":$	c #B7A685",
"<$	c #B09983",
"[$	c #AF322F",
"}$	c #CB736B",
"|$	c #C3F7E9",
"1$	c #BDFFF0",
"2$	c #BFFEEE",
"3$	c #BFFEEF",
"4$	c #BFFFF8",
"5$	c #BFFEF7",
"6$	c #BDFFF9",
"7$	c #BEFFFC",
"8$	c #D58E8D",
"9$	c #CF574E",
"0$	c #C3B8A6",
"a$	c #CFC1A3",
"b$	c #CBBD9F",
"c$	c #D6C8B0",
"d$	c #D5C8AE",
"e$	c #DACBB2",
"f$	c #DDC9B1",
"g$	c #B8A48D",
"h$	c #8A735F",
"i$	c #755D4A",
"j$	c #A58D79",
"k$	c #CDBB9C",
"l$	c #D5C2A1",
"m$	c #CBB699",
"n$	c #C3AE93",
"o$	c #BCA58B",
"p$	c #B9A88B",
"q$	c #A98C77",
"r$	c #B60000",
"s$	c #CD928F",
"t$	c #C3FCF9",
"u$	c #BFFDF7",
"v$	c #BDFEF6",
"w$	c #BDFFF7",
"x$	c #BDFDFC",
"y$	c #BEFDFD",
"z$	c #BDFBFB",
"A$	c #BDFFFF",
"B$	c #C5D3D4",
"C$	c #D13E40",
"D$	c #C6A394",
"E$	c #C1B9A3",
"F$	c #C5B6A1",
"G$	c #D0C1AE",
"H$	c #CCBDA3",
"I$	c #CDBFA6",
"J$	c #DBCEB5",
"K$	c #DDCFB6",
"L$	c #D4C2AA",
"M$	c #C7B69E",
"N$	c #D8C7AF",
"O$	c #D1BA9D",
"P$	c #CFB899",
"Q$	c #C3AF90",
"R$	c #C6B295",
"S$	c #C1AD92",
"T$	c #B39C81",
"U$	c #B4A287",
"V$	c #A8685A",
"W$	c #C40000",
"X$	c #C8D3D1",
"Y$	c #BCFFFF",
"Z$	c #BFFFFF",
"`$	c #BFFFFE",
" %	c #C0F6FD",
".%	c #BFF5FD",
"+%	c #BDF6FC",
"@%	c #BDF5FC",
"#%	c #BCF7FF",
"$%	c #C3FAFC",
"%%	c #D08A8E",
"&%	c #CD6054",
"*%	c #BBB29D",
"=%	c #BFB19C",
"-%	c #C8B9A4",
";%	c #D1C2AD",
">%	c #CBBDA8",
",%	c #C6B8A2",
"'%	c #C8B9A3",
")%	c #BDAE99",
"!%	c #C5B49D",
"~%	c #C5B19A",
"{%	c #C1B094",
"]%	c #C2B194",
"^%	c #C3B698",
"/%	c #B8A58A",
"(%	c #AA9579",
"_%	c #A7967B",
":%	c #B72823",
"<%	c #CB8D8E",
"[%	c #C1FAFB",
"}%	c #BDFBFF",
"|%	c #BFF9FF",
"1%	c #BFF9FE",
"2%	c #C1EEFF",
"3%	c #C1EDFE",
"4%	c #BEEEFE",
"5%	c #BFEFFE",
"6%	c #BEEDFC",
"7%	c #BEF7FF",
"8%	c #C5D7E1",
"9%	c #CE3441",
"0%	c #C58879",
"a%	c #BCB09E",
"b%	c #BDB09A",
"c%	c #CDBEA9",
"d%	c #D0C1AD",
"e%	c #C8B8A4",
"f%	c #BEAF9A",
"g%	c #B9AB96",
"h%	c #AFA18D",
"i%	c #BBAA9A",
"j%	c #C3B2A2",
"k%	c #CABAA1",
"l%	c #C5B397",
"m%	c #BCAA8E",
"n%	c #B19B81",
"o%	c #A5917A",
"p%	c #B46252",
"q%	c #C33436",
"r%	c #C2DADA",
"s%	c #C2FFFF",
"t%	c #C0EFFE",
"u%	c #C1F2FF",
"v%	c #C1F1FF",
"w%	c #BDEAFC",
"x%	c #BEEAFD",
"y%	c #BEEBFC",
"z%	c #BEE8FB",
"A%	c #BFF3FF",
"B%	c #C5B9C2",
"C%	c #CB3B3E",
"D%	c #C1978B",
"E%	c #B3A996",
"F%	c #BCAA94",
"G%	c #C1AF9C",
"H%	c #C5B2A3",
"I%	c #C7B5A4",
"J%	c #C2B09D",
"K%	c #C5B4A1",
"L%	c #C8B3A3",
"M%	c #C4AD9D",
"N%	c #BFA792",
"O%	c #B19983",
"P%	c #A99076",
"Q%	c #AC866D",
"R%	c #B26056",
"S%	c #BE231E",
"T%	c #A3615E",
"U%	c #9BA9AC",
"V%	c #B6D7E3",
"W%	c #C0EFFF",
"X%	c #BCEBFE",
"Y%	c #C0EBFE",
"Z%	c #C0EDFF",
"`%	c #BFE3FE",
" &	c #BEE2FE",
".&	c #BFE2FE",
"+&	c #BFE1FD",
"@&	c #C0E7FF",
"#&	c #BFE5FA",
"$&	c #B16E75",
"%&	c #C03C3D",
"&&	c #BA968A",
"*&	c #B4A592",
"=&	c #B19B89",
"-&	c #AF9C88",
";&	c #AD9884",
">&	c #B2957F",
",&	c #B4947E",
"'&	c #B18F7B",
")&	c #AB8C77",
"!&	c #A4846C",
"~&	c #A37C66",
"{&	c #AA6551",
"]&	c #B93D37",
"^&	c #A90C13",
"/&	c #9B595A",
"(&	c #8E8888",
"_&	c #8C8481",
":&	c #A7A1A3",
"<&	c #C3D7E6",
"[&	c #C3E9FF",
"}&	c #C1E5FF",
"|&	c #C0E4FE",
"1&	c #BEDCFE",
"2&	c #BEDBFD",
"3&	c #BEDAFE",
"4&	c #BDDDFF",
"5&	c #C5DDFD",
"6&	c #B1B2C7",
"7&	c #585658",
"8&	c #974A53",
"9&	c #BA4E48",
"0&	c #B6695E",
"a&	c #B18172",
"b&	c #B18371",
"c&	c #AD8272",
"d&	c #A8826D",
"e&	c #A58164",
"f&	c #A47E68",
"g&	c #AC7D68",
"h&	c #B46D5C",
"i&	c #BD4940",
"j&	c #C52B2B",
"k&	c #B70906",
"l&	c #905451",
"m&	c #9C8F8D",
"n&	c #878C88",
"o&	c #999792",
"p&	c #AEA8A3",
"q&	c #B0B4B4",
"r&	c #BCCCDE",
"s&	c #BFE0FA",
"t&	c #BFDFFF",
"u&	c #BED3FE",
"v&	c #BED2FD",
"w&	c #BDD3FF",
"x&	c #C1D6FF",
"y&	c #C0D3F2",
"z&	c #B5BECD",
"A&	c #9A8E8E",
"B&	c #6B5F5E",
"C&	c #797476",
"D&	c #B3373D",
"E&	c #C20203",
"F&	c #BC5D5E",
"G&	c #B54F4F",
"H&	c #C33832",
"I&	c #C24B44",
"J&	c #BD7160",
"K&	c #C6685A",
"L&	c #CA3936",
"M&	c #CA2529",
"N&	c #C2050D",
"O&	c #C47877",
"P&	c #C24A49",
"Q&	c #B77E78",
"R&	c #9FA29A",
"S&	c #95918D",
"T&	c #A6A7A2",
"U&	c #ADA5A5",
"V&	c #B9847D",
"W&	c #BB5A52",
"X&	c #B6AAB7",
"Y&	c #C0DCFF",
"Z&	c #BECDFF",
"`&	c #BDCAFF",
" *	c #C4D3FB",
".*	c #C2C1DF",
"+*	c #C1758B",
"@*	c #B79291",
"#*	c #9B9B9E",
"$*	c #988F8D",
"%*	c #A39D9C",
"&*	c #9A575C",
"**	c #D51215",
"=*	c #D9595D",
"-*	c #D08E8F",
";*	c #CC676A",
">*	c #DC0000",
",*	c #E1152A",
"'*	c #DB0027",
")*	c #E01722",
"!*	c #DB291F",
"~*	c #E02322",
"{*	c #D94E52",
"]*	c #E53A3C",
"^*	c #DB494A",
"/*	c #A58C8C",
"(*	c #9B9D9F",
"_*	c #ABAEA9",
":*	c #CF706E",
"<*	c #D73D42",
"[*	c #B67E7A",
"}*	c #B67578",
"|*	c #B7A3B9",
"1*	c #BDC4FD",
"2*	c #C1CBFD",
"3*	c #C2C9ED",
"4*	c #C08B9C",
"5*	c #B97B7D",
"6*	c #B56E6A",
"7*	c #D7393D",
"8*	c #B98387",
"9*	c #8C8D93",
"0*	c #A7A5A8",
"a*	c #9C8086",
"b*	c #DD1E1E",
"c*	c #EF1C10",
"d*	c #E14D51",
"e*	c #DE5F56",
"f*	c #EF9829",
"g*	c #F5B128",
"h*	c #E79025",
"i*	c #E13726",
"j*	c #EA2028",
"k*	c #EA2924",
"l*	c #E61B11",
"m*	c #ED2723",
"n*	c #F61A13",
"o*	c #BE5056",
"p*	c #8E9BA4",
"q*	c #C87D82",
"r*	c #E52D21",
"s*	c #C98B89",
"t*	c #CC7070",
"u*	c #C6423B",
"v*	c #B0796D",
"w*	c #C3C3FA",
"x*	c #BFC4E3",
"y*	c #AFB4B9",
"z*	c #B2766E",
"A*	c #CF2C32",
"B*	c #BE8387",
"C*	c #C66F6D",
"D*	c #E0373B",
"E*	c #9C7D7E",
"F*	c #879299",
"G*	c #998C92",
"H*	c #CB3E3D",
"I*	c #EA2619",
"J*	c #E10003",
"K*	c #E16E20",
"L*	c #E7B23D",
"M*	c #E8BC40",
"N*	c #F0BD33",
"O*	c #DF7721",
"P*	c #E10022",
"Q*	c #E72A24",
"R*	c #E82A25",
"S*	c #EF2D26",
"T*	c #F32420",
"U*	c #C73E3D",
"V*	c #9F8384",
"W*	c #D83B41",
"X*	c #C87877",
"Y*	c #D17073",
"Z*	c #D65354",
"`*	c #B3A09F",
" =	c #AEAEAE",
".=	c #C4BFD5",
"+=	c #B1ADAC",
"@=	c #A0A1A1",
"#=	c #A1A7A3",
"$=	c #B8746D",
"%=	c #D23B3D",
"&=	c #B48A8B",
"*=	c #D15453",
"==	c #C75655",
"-=	c #888286",
";=	c #7A7B83",
">=	c #BA5D61",
",=	c #E3181C",
"'=	c #E52F2B",
")=	c #D36824",
"!=	c #C97D2B",
"~=	c #CA803A",
"{=	c #D28424",
"]=	c #D57720",
"^=	c #DF181F",
"/=	c #E92926",
"(=	c #E92925",
"_=	c #E82B2C",
":=	c #E41916",
"<=	c #C35151",
"[=	c #B56164",
"}=	c #C7504F",
"|=	c #C1797D",
"1=	c #D1373C",
"2=	c #B49A9B",
"3=	c #AAB2B3",
"4=	c #ACA6A9",
". + @ # $ % $ & * = - ; = ; > > , > , , > , > > , ' ) ) ! ) ~ ~ ",
"{ ] ^ / { ^ ( ^ _ ^ : < ^ ( < < : < [ [ < < } < < | 1 2 3 3 1 1 ",
"4 5 4 5 4 4 5 5 4 5 4 4 5 6 7 8 8 8 8 8 8 9 6 0 0 a b b c b d b ",
"e e e e e e f g h h h g h i j j k j j j k l m m n m n n n o p q ",
"r s t t s r u v w x y y x w w x w w y v w z A B C B D E B B F G ",
"H I J H I H I I H I H K I L M N O P Q N R S T T Q U V W X W X X ",
"Y Z ` ` Z Y ` Z Y  ...+.@.#.$.%.&.*.=.-.;.>.,.,.'.).!.!.!.~.{.{.",
"].^././.^.]./.^.(._.:.<.[.}.|.1.2.3.4.5.6.7.(.8.9.8././.8.0.a.b.",
"c.d.e.c.d.e.f.d.c.g.f.h.i.j.k.l.m.n.o.p.q.r.s.g.t.f.c.g.d.c.u.v.",
"w.w.x.y.w.w.z.w.A.B.C.D.E.F.G.H.I.J.K.L.M.N.O.P.Q.R.S.T.U.V.W.W.",
"X.Y.Z.X.X.`. +.+++@+#+$+%+&+*+=+-+;+>+,+'+)+!+~+{+]+^+/+(+(+_+(+",
":+<+[+<+}+|+1+2+3+4+5+6+7+8+9+0+a+b+c+d+e+f+g+h+i+j+k+l+m+n+o+p+",
"q+r+s+t+u+v+w+x+y+z+A+B+C+D+E+F+G+H+I+J+K+L+M+N+O+P+Q+R+S+T+U+V+",
"W+X+Y+Z+`+ @.@+@@@#@$@%@&@*@=@-@;@>@,@'@)@!@~@{@]@^@/@(@_@:@<@[@",
"}@|@1@2@3@4@5@6@7@8@9@0@a@b@c@d@e@f@g@h@i@j@k@l@m@n@o@p@q@r@s@t@",
"u@v@w@x@y@z@A@B@C@D@E@F@G@H@I@J@K@L@H@M@N@O@P@Q@R@S@T@U@V@W@X@Y@",
"Z@`@ #.#+#@###$#%#&#*#=#-#;#>#,#'#)#!#~#{#]#^#/#(#_#:#<#[#}#|#1#",
"2#3#4#5#6#7#8#9#0#a#b#c#d#e#f#g#h#i#j#)@k#l#m#n#o#p#q#r#s#t#u#v#",
"w#w#x#y#z#A#B#C#D#E#F#G#H#I#J#K#L#M#N#O#P#Q#R#S#T#U#V#W#X#Y#Z#`#",
" $.$+$@$#$$$%$&$*$=$-$;$>$,$'$)$!$~${$]$^$/$($_$:$<$[$}$|$1$2$3$",
"4$4$5$6$7$8$9$0$a$b$c$d$e$f$g$h$i$j$k$l$R#m$n$o$p$q$r$s$t$u$v$w$",
"x$y$x$z$A$B$C$D$E$F$G$H$I$J$K$L$M$N$O$P$Q$R$S$T$U$V$W$X$Y$x$Z$`$",
" %.%+%@%#%$%%%&%*%=%-%;%;%>%,%'%)%!%~%{%]%^%/%(%_%:%<%[%}%|%|%1%",
"2%3%4%5%6%7%8%9%0%a%b%c%d%e%f%g%h%i%j%k%l%m%n%o%p%q%r%s%t%u%v%v%",
"w%x%w%w%y%z%A%B%C%D%E%F%G%H%I%J%K%L%M%N%O%P%Q%R%S%T%U%V%W%X%Y%Z%",
"`% & & &.&+&@&#&$&%&&&*&=&-&;&>&,&'&)&!&~&{&]&^&/&(&_&:&<&[&}&|&",
"1&1&1&2&3&4&5&6&7&8&9&0&a&b&c&d&e&f&g&h&i&j&k&l&m&n&o&p&q&r&s&t&",
"u&u&v&w&x&y&z&A&B&C&D&E&F&G&H&I&J&K&L&M&N&O&P&Q&R&S&T&U&V&W&X&Y&",
"Z&`&Z& *.*+*@*#*$*%*&***=*-*;*>*,*'*)*!*~*{*]*^*/*(*_*:*<*[*}*|*",
"1*2*3*4*5*6*7*8*9*0*a*b*c*d*e*f*g*h*i*j*k*l*m*n*o*p*q*r*s*t*u*v*",
"w*x*y*z*A*B*C*D*E*F*G*H*I*J*K*L*M*N*O*P*Q*R*S*T*U*V*W*X*Y*Z*`* =",
".=+=@=#=$=%=&=*===-=;=>=,='=)=!=~={=]=^=/=(=_=:=<=[=}=|=1=2=3=4="};
